<svg xmlns:mydata="http://www.w3.org/2000/svg" mydata:contrastcolor="11111f" mydata:template="Contrast" mydata:presentation="2.5" mydata:layouttype="undefined" mydata:specialfontid="undefined" mydata:id1="879" mydata:id2="1000" mydata:companyname="Exploit" mydata:companytagline="" version="1.1" xmlns="http://www.w3.org/2000/svg" xmlns:xlink="http://www.w3.org/1999/xlink" viewBox="0 35 550 400"><g fill="#b1b3b3" fillRule="nonzero" stroke="none" stroke-width="1" stroke-linecap="butt" stroke-linejoin="miter" stroke-miterlimit="10" stroke-dasharray="" stroke-dashoffset="0" font-family="none" font-weight="none" font-size="none" text-anchor="none" style="mix-blend-mode: normal"><g data-paper-data="{&quot;isGlobalGroup&quot;:true,&quot;bounds&quot;:{&quot;x&quot;:96.12228318064771,&quot;y&quot;:115,&quot;width&quot;:357.7554336387045,&quot;height&quot;:240}}"><g data-paper-data="{&quot;isPrimaryText&quot;:true}"><path d="M150.68344,296.19629h-33.44707l-2.07194,1.57862l-7.89311,6.11716l-8.38643,6.51182l-2.76259,2.07194v26.24461l2.76259,2.07194l8.38643,6.51182v0l7.89311,6.11716l2.07194,1.57862h33.44707v-11.14902h-29.69784l-13.71429,-10.65571v-15.19425l13.71429,-10.55704h29.69784zM150.68344,320.07297h-35.51902v11.14902h35.51902z" data-paper-data="{&quot;glyphName&quot;:&quot;E&quot;,&quot;glyphIndex&quot;:0,&quot;firstGlyphOfWord&quot;:true,&quot;word&quot;:1}" fill="#ffffff"></path><path d="M169.62692,296.19629h-13.1223v10.26105l18.25283,19.1408l-18.25283,19.1408v10.26105h13.1223v-6.70915l14.99692,-16.27955l15.09558,16.27955v6.70915h13.02364v-10.26105l-18.35149,-19.1408l18.35149,-19.04214v-10.35971h-13.02364v6.70915l-15.09558,16.27955l-14.99692,-16.27955z" data-paper-data="{&quot;glyphName&quot;:&quot;X&quot;,&quot;glyphIndex&quot;:1,&quot;word&quot;:1}" fill="#ffffff"></path><path d="M229.81192,296.19629h-11.14902v58.80371h11.14902v-2.66393v-12.53032v-5.62384h7.30113h16.27955v0h4.9332l6.11716,-4.53854l6.70915,-4.9332v-21.31141l-11.54368,-7.20247h-26.93525l-2.86125,2.4666zM236.91572,304.87872l16.27955,-0.09866l7.69579,4.83453l0.09866,10.85303l-7.69579,4.83453h-16.27955h-7.20247v-14.01028z" data-paper-data="{&quot;glyphName&quot;:&quot;P&quot;,&quot;glyphIndex&quot;:2,&quot;word&quot;:1}" fill="#ffffff"></path><path d="M287.037,296.19629h-10.06372v33.44707v7.1038l9.5704,13.31963l3.74923,4.9332h18.64748v-11.14902h-13.02364l-7.79445,-10.85303v-25.55396v-11.24769z" data-paper-data="{&quot;glyphName&quot;:&quot;L&quot;,&quot;glyphIndex&quot;:3,&quot;word&quot;:1}" fill="#ffffff"></path><path d="M357.28572,296.19629h-27.6259l-3.74923,4.9332l-11.14902,14.89825v7.1038v4.9332v7.1038l11.14902,14.89825l3.74923,4.9332h27.6259l3.65057,-4.9332l11.24769,-14.89825v-7.1038v-4.9332v-7.1038l-11.24769,-14.89825zM325.91059,319.77697l9.37307,-12.33299h16.37821l9.27441,12.33299v11.64234l-9.27441,12.43166h-16.37821l-9.37307,-12.43166z" data-paper-data="{&quot;glyphName&quot;:&quot;O&quot;,&quot;glyphIndex&quot;:4,&quot;word&quot;:1}" fill="#ffffff"></path><path d="M390.53547,296.19629h-12.53032v58.80371h12.53032z" data-paper-data="{&quot;glyphName&quot;:&quot;I&quot;,&quot;glyphIndex&quot;:5,&quot;word&quot;:1}" fill="#ffffff"></path><path d="M419.24668,296.19629h-14.01028l-8.87975,11.24769h22.89003v47.55602h11.74101v-47.55602h22.89003l-8.87975,-11.24769h-14.01028z" data-paper-data="{&quot;glyphName&quot;:&quot;T&quot;,&quot;glyphIndex&quot;:6,&quot;lastGlyphOfWord&quot;:true,&quot;word&quot;:1}" fill="#ffffff"></path></g><g data-paper-data="{&quot;isIcon&quot;:&quot;true&quot;,&quot;iconType&quot;:&quot;icon&quot;,&quot;rawIconId&quot;:&quot;aac2534d-728a-4b05-ae2b-517be8fc4fd0&quot;,&quot;selectedEffects&quot;:{&quot;container&quot;:&quot;&quot;,&quot;transformation&quot;:&quot;&quot;,&quot;pattern&quot;:&quot;&quot;},&quot;isDetailed&quot;:false,&quot;fillRule&quot;:&quot;nonzero&quot;,&quot;bounds&quot;:{&quot;x&quot;:208.03356649940002,&quot;y&quot;:115,&quot;width&quot;:133.9328670011999,&quot;height&quot;:149.89194603804214},&quot;iconStyle&quot;:&quot;standalone&quot;,&quot;suitableAsStandaloneIcon&quot;:true}"><path d="M261.62249,250.22083l5.94936,-0.22035c12.55976,-0.44069 0.88139,-19.61086 -4.18659,-19.39051c-4.18659,0.44069 -8.37317,-0.22035 -12.11907,-2.20346c-5.50866,-2.86451 -9.9156,-6.83075 -13.2208,-11.89872c-4.18659,-6.39005 -7.49179,-13.44115 -9.25456,-26.22126h15.20392c4.18659,0 8.59352,-0.66104 12.78011,-1.10174c7.0511,-0.66104 13.88184,-2.64416 20.71259,-4.84763c12.55976,-4.18659 17.62773,-7.93248 26.88229,-14.76323c1.98312,-1.54243 2.86451,-2.42381 2.20346,-5.50866c-1.98312,-8.81387 -5.72901,-17.40739 -10.79699,-25.11952c-5.94936,-8.81387 -13.44115,-15.86496 -23.13641,-20.2719c-8.15282,-3.7459 -16.526,-4.62728 -25.33987,-2.64416c-10.57664,2.42381 -18.94982,8.15282 -25.56022,16.526c-4.18659,5.28832 -7.0511,10.79699 -9.25456,16.9667c-6.39005,17.84808 -5.72901,45.61176 0.88139,62.35811c4.40694,11.23768 10.57664,20.93293 20.05155,28.20438c8.37317,6.39005 17.40739,10.57664 28.20438,10.13595zM284.75889,159.8787c-5.28832,3.96624 -16.9667,7.71214 -27.10264,9.25456c-5.06797,0.88139 -10.3563,1.32208 -15.42427,1.76277c-2.20346,0.22035 -11.01733,0.22035 -14.54288,-0.66104c0.66104,-6.6104 2.42381,-13.00046 5.28832,-18.94982c2.42381,-4.84763 5.72901,-9.03421 10.13595,-12.33941c4.62728,-3.52555 9.9156,-4.84763 15.64461,-3.96624c4.18659,0.66104 7.93248,2.20346 11.23768,4.84763c4.40694,3.52555 8.15282,7.71214 10.79699,12.55976c1.32208,2.42381 2.64416,4.84763 3.96624,7.49179zM341.16765,214.08398c-0.66104,-16.08531 -22.25502,-35.91651 -39.88275,-31.72992c-24.01779,5.72901 -30.40784,36.79789 -20.2719,59.27326c13.2208,29.08577 42.52691,31.28923 60.15465,4.40694c4.18659,-6.39005 -9.25456,-16.9667 -13.2208,-9.47491c-9.69526,18.28877 -27.10264,12.11907 -32.39097,-4.18659l0.22035,-0.22035c15.42427,1.76277 45.83211,-6.16971 45.39142,-18.06843zM322.87887,210.55843l-0.22035,0.22035c-2.20346,1.10174 -7.0511,2.86451 -13.2208,4.62728c-2.86451,0.44069 -5.72901,0.66104 -9.03421,1.10174c-0.88139,0.22035 -3.52555,0.22035 -5.50866,0.22035l-0.22035,-0.22035c0.66104,-3.08485 1.54243,-5.50866 2.64416,-8.37317c4.62728,-12.33941 18.06843,-11.23768 25.56022,2.42381z" data-paper-data="{&quot;isPathIcon&quot;:true}"></path></g></g></g><g class="watermark-group" style="opacity:0.040000010281801224"><path class="watermark-path" d="M129.52,370.3a11.88,11.88,0,0,1,2.58,5.58,12,12,0,0,1,.11,3,11.81,11.81,0,0,1-.64,2.93,12.34,12.34,0,0,1-1.41,2.72,11.65,11.65,0,0,1-2.13,2.32,12,12,0,0,1-2.64,1.69,13,13,0,0,1-2.91.9,12.47,12.47,0,0,1-3,.12,12.17,12.17,0,0,1-2.93-.64,11.8,11.8,0,0,1-2.72-1.38,12.19,12.19,0,0,1-4-4.79,11.85,11.85,0,0,1-.89-2.92,12.14,12.14,0,0,1-.13-3,11.54,11.54,0,0,1,.64-2.92,11.67,11.67,0,0,1,3.5-5,11.44,11.44,0,0,1,2.67-1.69,11.64,11.64,0,0,1,2.92-.91,10.71,10.71,0,0,1,3-.12,11.68,11.68,0,0,1,5.66,2,11.7,11.7,0,0,1,2.34,2.12m-1.4,8.76a13,13,0,0,1-1.22,2.32,9.68,9.68,0,0,1-1.81,2,7.44,7.44,0,0,1-2.38,1.37,6.17,6.17,0,0,1-5.11-.46,8.73,8.73,0,0,1-3.85-4.58,6.69,6.69,0,0,1-.34-2.66,6.09,6.09,0,0,1,.77-2.47,7.15,7.15,0,0,1,1.75-2.11,9.58,9.58,0,0,1,1.09-.81,8.23,8.23,0,0,1,1.12-.63,8.14,8.14,0,0,1,1.19-.46,12.71,12.71,0,0,1,1.32-.37l2,2.38a12.83,12.83,0,0,0-1.56.17,7.86,7.86,0,0,0-1.23.32,4.5,4.5,0,0,0-1,.49,6.41,6.41,0,0,0-.93.67,4.49,4.49,0,0,0-1.15,1.39,3.87,3.87,0,0,0-.45,1.58,4.12,4.12,0,0,0,.26,1.63,6.11,6.11,0,0,0,2.36,2.82,4.43,4.43,0,0,0,1.57.53,3.91,3.91,0,0,0,1.62-.17,4.71,4.71,0,0,0,1.57-.89,10.5,10.5,0,0,0,.83-.79,5.71,5.71,0,0,0,.65-.93,10.13,10.13,0,0,0,.54-1.14,12.24,12.24,0,0,0,.44-1.49l2,2.33m-14.46,4.55a8.86,8.86,0,0,0,2.78,2.22,9,9,0,0,0,3.29.94,9.15,9.15,0,0,0,3.39-.37,8.68,8.68,0,0,0,3.11-1.69,8.8,8.8,0,0,0,2.22-2.78,9.15,9.15,0,0,0,1-3.29,8.95,8.95,0,0,0-4.83-8.76,9,9,0,0,0-6.73-.57,9,9,0,0,0-5.33,4.47,8.94,8.94,0,0,0-.57,6.71,8.76,8.76,0,0,0,1.7,3.12"></path><path class="watermark-path" d="M147,349c-.48.12-1.09.31-1.82.57a24.37,24.37,0,0,0-2.4,1A28.35,28.35,0,0,0,140,352a20.72,20.72,0,0,0-2.71,1.94c-.7.59-1.28,1.11-1.74,1.57a15.07,15.07,0,0,0-1.1,1.22,4.09,4.09,0,0,0-.59.92,2.32,2.32,0,0,0-.22.64,1.16,1.16,0,0,0,0,.47,1.83,1.83,0,0,0,.18.29,1.15,1.15,0,0,0,1,.37,5.54,5.54,0,0,0,1.51-.38q.87-.35,1.95-.9l2.26-1.18q1.2-.65,2.49-1.29c.87-.44,1.73-.83,2.59-1.17a18.94,18.94,0,0,1,2.6-.81,9.27,9.27,0,0,1,2.46-.29,6.25,6.25,0,0,1,2.24.49,5.12,5.12,0,0,1,1.89,1.47,6.35,6.35,0,0,1,1.41,2.61,6,6,0,0,1,.09,2.6,8.3,8.3,0,0,1-.9,2.52,17.79,17.79,0,0,1-1.62,2.37,23.92,23.92,0,0,1-2,2.15c-.72.67-1.41,1.29-2.09,1.87a33.79,33.79,0,0,1-5.33,3.7,32.29,32.29,0,0,1-4.91,2.28l-3.61-4.3a21.38,21.38,0,0,0,5.39-1.87,27.2,27.2,0,0,0,5.4-3.56,21.59,21.59,0,0,0,2.38-2.27,8.67,8.67,0,0,0,1.18-1.7,2.32,2.32,0,0,0,.27-1.19,1.34,1.34,0,0,0-.28-.74,1.21,1.21,0,0,0-1-.42,4.32,4.32,0,0,0-1.55.34,15.77,15.77,0,0,0-2,.88c-.72.37-1.48.77-2.27,1.21l-2.45,1.3c-.85.45-1.7.85-2.56,1.21a22.37,22.37,0,0,1-2.54.86,10,10,0,0,1-2.43.32,5.76,5.76,0,0,1-2.2-.45,5,5,0,0,1-1.89-1.45,6.12,6.12,0,0,1-1.31-2.41,6,6,0,0,1-.1-2.41,8.28,8.28,0,0,1,.81-2.38,14.06,14.06,0,0,1,1.49-2.24,22.37,22.37,0,0,1,1.85-2.05q1-1,2-1.77c.7-.59,1.44-1.15,2.23-1.7s1.62-1.06,2.44-1.53,1.63-.91,2.43-1.3,1.58-.75,2.3-1L147,349"></path><path class="watermark-path" d="M186.76,337.57l-10.6-12.63,3.92,18.24-4.66,3.91-17.27-7,10.6,12.63-4.86,4.07-15.09-18,6.59-5.54,18.69,7.52-4.15-19.71,6.57-5.52,15.09,18-4.83,4.05"></path><path class="watermark-path" d="M208.84,313.24l-10,8.42,1.16,4.82L194.56,331l-5.68-25.89,5.42-4.55,24.51,10.09-5.42,4.55-4.55-2m-11.23,3.45,6.57-5.52-8.83-3.87,2.26,9.39"></path><path class="watermark-path" d="M227.49,281.38c-.48.12-1.09.31-1.82.57a24.37,24.37,0,0,0-2.4,1,26.11,26.11,0,0,0-2.7,1.47,20.72,20.72,0,0,0-2.71,1.94c-.7.59-1.28,1.11-1.74,1.57a13.39,13.39,0,0,0-1.1,1.22,4.29,4.29,0,0,0-.59.91,2.48,2.48,0,0,0-.22.65,1.16,1.16,0,0,0,0,.47,1.83,1.83,0,0,0,.18.29,1.15,1.15,0,0,0,1,.37,5.54,5.54,0,0,0,1.51-.38q.87-.34,2-.9l2.26-1.18q1.2-.64,2.49-1.29c.87-.44,1.73-.83,2.59-1.17a18.94,18.94,0,0,1,2.6-.81,9.27,9.27,0,0,1,2.46-.29,6.08,6.08,0,0,1,2.24.49,5.09,5.09,0,0,1,1.89,1.46,6.47,6.47,0,0,1,1.41,2.61,6.07,6.07,0,0,1,.09,2.61,8.3,8.3,0,0,1-.9,2.52,16.32,16.32,0,0,1-1.63,2.36,21.41,21.41,0,0,1-2,2.16c-.72.67-1.41,1.29-2.1,1.86a33.36,33.36,0,0,1-5.32,3.71,31.92,31.92,0,0,1-4.92,2.28l-3.6-4.3a21.38,21.38,0,0,0,5.39-1.87,27.2,27.2,0,0,0,5.4-3.56,21.59,21.59,0,0,0,2.38-2.27,8.67,8.67,0,0,0,1.18-1.7A2.32,2.32,0,0,0,231,293a1.34,1.34,0,0,0-.28-.74,1.21,1.21,0,0,0-1-.42,4.32,4.32,0,0,0-1.55.34,16.54,16.54,0,0,0-2,.88c-.71.37-1.47.77-2.26,1.21l-2.46,1.3c-.84.44-1.7.85-2.55,1.21a24.53,24.53,0,0,1-2.54.86A10,10,0,0,1,214,298a5.76,5.76,0,0,1-2.2-.45,5,5,0,0,1-1.89-1.45,6.12,6.12,0,0,1-1.31-2.41,5.78,5.78,0,0,1-.1-2.41,8,8,0,0,1,.81-2.38,14.61,14.61,0,0,1,1.49-2.25,22.26,22.26,0,0,1,1.85-2q1-1,2-1.77c.7-.59,1.44-1.15,2.23-1.7s1.62-1.06,2.44-1.53,1.63-.91,2.43-1.31,1.58-.74,2.3-1l3.5,4.16"></path><path class="watermark-path" d="M261.64,274.74l-6.29-7.5L243,277.61l6.3,7.5-4.86,4.07-15.09-18,4.85-4.08,5.49,6.55L252,263.3l-5.49-6.55,4.86-4.07,15.09,18-4.86,4.08"></path><path class="watermark-path" d="M272.18,265.9l-15.09-18,4.86-4.08,15.09,18-4.86,4.08"></path><path class="watermark-path" d="M299.65,242.85l-22.51-2.18L287.51,253l-4.85,4.08-15.1-18,5.28-4.43,22.56,2.22L285,224.5l4.83-4.06,15.09,18-5.26,4.42"></path><path class="watermark-path" d="M306.68,205.52a31.88,31.88,0,0,1,5.29-3.66,34.48,34.48,0,0,1,5.14-2.35l3.69,4.39a20.77,20.77,0,0,0-2.37.61,20.47,20.47,0,0,0-2.61,1,25.12,25.12,0,0,0-2.76,1.49,23.9,23.9,0,0,0-2.8,2,20.42,20.42,0,0,0-2.8,2.77,12.77,12.77,0,0,0-1.64,2.52,7,7,0,0,0-.68,2.24,6,6,0,0,0,.66,3.64,8.16,8.16,0,0,0,.94,1.38,9.12,9.12,0,0,0,1.08,1.07,6.39,6.39,0,0,0,1.47.91,6.73,6.73,0,0,0,1.88.48,6.54,6.54,0,0,0,2.28-.18,11.67,11.67,0,0,0,2.74-1.07,19.38,19.38,0,0,0,3.18-2.22c.57-.48,1.06-.92,1.46-1.31a14.57,14.57,0,0,0,1-1.13,11.46,11.46,0,0,0,.81-1.05l.74-1.09-1.82-2.17-5.45,4.57-3.31-3.94,10.31-8.65,7.71,9.19a29,29,0,0,1-1.67,2.43q-1,1.26-2.1,2.52c-.74.84-1.5,1.65-2.3,2.44s-1.58,1.5-2.33,2.14a31,31,0,0,1-3.59,2.61,22.55,22.55,0,0,1-3.64,1.83,15.64,15.64,0,0,1-3.63.89,10.72,10.72,0,0,1-3.49-.15,10.45,10.45,0,0,1-3.28-1.33,12.54,12.54,0,0,1-3-2.67,12,12,0,0,1-2.08-3.44,10.45,10.45,0,0,1-.71-3.5,11.14,11.14,0,0,1,.51-3.51,15.72,15.72,0,0,1,1.56-3.43,21.62,21.62,0,0,1,2.42-3.28,30.3,30.3,0,0,1,3.15-3"></path><path class="watermark-path" d="M336.91,211.59l-15.1-18,4.86-4.08,11.79,14,13.13-11,3.31,3.94-18,15.1"></path><path class="watermark-path" d="M374.54,164.71a12.28,12.28,0,0,1,2.59,4.81,10.44,10.44,0,0,1,0,5,14.62,14.62,0,0,1-2.33,5,25.55,25.55,0,0,1-4.56,4.85,26.07,26.07,0,0,1-5.6,3.67,14.79,14.79,0,0,1-5.38,1.43,10.43,10.43,0,0,1-4.94-.89,13.24,13.24,0,0,1-6.87-8.18,10.48,10.48,0,0,1,0-5,14.51,14.51,0,0,1,2.36-5,25.23,25.23,0,0,1,4.57-4.89,25,25,0,0,1,5.59-3.64,14.45,14.45,0,0,1,5.35-1.43,10.31,10.31,0,0,1,4.93.92,12.22,12.22,0,0,1,4.28,3.38m-4.91,4.11a8.36,8.36,0,0,0-2-1.72,5.5,5.5,0,0,0-2.65-.85,7.72,7.72,0,0,0-3.32.57,14.49,14.49,0,0,0-4,2.52,16.72,16.72,0,0,0-2.38,2.4,10.15,10.15,0,0,0-1.39,2.24,6.71,6.71,0,0,0-.56,2.1,5.69,5.69,0,0,0,.1,1.9,6.21,6.21,0,0,0,.61,1.69,9.85,9.85,0,0,0,1,1.44,10.48,10.48,0,0,0,1.26,1.23,6.67,6.67,0,0,0,1.57.92,6.1,6.1,0,0,0,1.85.41,6.8,6.8,0,0,0,2.15-.2,11.06,11.06,0,0,0,2.45-1,17.67,17.67,0,0,0,2.77-1.94,14.39,14.39,0,0,0,3.18-3.52,7.74,7.74,0,0,0,1.14-3.17,5.54,5.54,0,0,0-.37-2.74,8.52,8.52,0,0,0-1.36-2.3"></path><path class="watermark-path" d="M382.66,141.76A32.3,32.3,0,0,1,388,138.1a34.12,34.12,0,0,1,5.15-2.35l3.69,4.4a19.62,19.62,0,0,0-2.37.6,22.08,22.08,0,0,0-2.61,1,26,26,0,0,0-2.77,1.49,23.9,23.9,0,0,0-2.8,2,21,21,0,0,0-2.8,2.78,13.19,13.19,0,0,0-1.64,2.51,7.29,7.29,0,0,0-.68,2.24,6.36,6.36,0,0,0,.06,2,5.8,5.8,0,0,0,.61,1.68,8.12,8.12,0,0,0,.93,1.38,9.16,9.16,0,0,0,1.08,1.08,6.56,6.56,0,0,0,1.48.9,6,6,0,0,0,1.87.48,6.76,6.76,0,0,0,2.28-.17,12,12,0,0,0,2.74-1.08,18.57,18.57,0,0,0,3.18-2.22c.58-.48,1.06-.92,1.46-1.31s.75-.77,1.05-1.12.57-.72.81-1.06l.73-1.09-1.82-2.17-5.45,4.57-3.3-3.94,10.3-8.65,7.71,9.19a29,29,0,0,1-1.67,2.43q-1,1.26-2.1,2.52c-.73.84-1.5,1.66-2.3,2.44s-1.57,1.5-2.33,2.14a31,31,0,0,1-3.59,2.61,22.15,22.15,0,0,1-3.64,1.83,15.56,15.56,0,0,1-3.62.89,11,11,0,0,1-3.49-.14,10.84,10.84,0,0,1-3.28-1.33,12.82,12.82,0,0,1-3-2.68,12.12,12.12,0,0,1-2.08-3.43A10.71,10.71,0,0,1,375,155a11.18,11.18,0,0,1,.51-3.51,15.51,15.51,0,0,1,1.57-3.43,21.44,21.44,0,0,1,2.42-3.28,30.19,30.19,0,0,1,3.14-3"></path><path class="watermark-path" d="M428.63,119.31a12.26,12.26,0,0,1,2.59,4.82,10.44,10.44,0,0,1,0,5,14.53,14.53,0,0,1-2.34,5,25.29,25.29,0,0,1-4.56,4.86,26,26,0,0,1-5.59,3.67,14.84,14.84,0,0,1-5.38,1.43,10.61,10.61,0,0,1-4.95-.89,12.15,12.15,0,0,1-4.3-3.37,12,12,0,0,1-2.56-4.81,10.48,10.48,0,0,1,0-5,14.39,14.39,0,0,1,2.35-5,27.89,27.89,0,0,1,10.16-8.53,14.49,14.49,0,0,1,5.36-1.43,10.27,10.27,0,0,1,4.92.92,12.21,12.21,0,0,1,4.28,3.37m-4.91,4.12a8.17,8.17,0,0,0-2-1.72,5.58,5.58,0,0,0-2.65-.86,7.86,7.86,0,0,0-3.31.58,14.49,14.49,0,0,0-4,2.52,16.21,16.21,0,0,0-2.38,2.4,9.85,9.85,0,0,0-1.4,2.24,7,7,0,0,0-.56,2.1,6,6,0,0,0,.1,1.9,6.23,6.23,0,0,0,.62,1.69,8.49,8.49,0,0,0,1,1.44,9.18,9.18,0,0,0,1.26,1.23,6.67,6.67,0,0,0,1.57.92,6,6,0,0,0,1.84.41,6.86,6.86,0,0,0,2.16-.2,11.26,11.26,0,0,0,2.45-1,17.62,17.62,0,0,0,2.76-1.94,14.67,14.67,0,0,0,3.19-3.52,7.71,7.71,0,0,0,1.13-3.17,5.53,5.53,0,0,0-.36-2.74,8.55,8.55,0,0,0-1.37-2.3"></path></g></svg>